PathFileType	4	(X/Y/Z)	OpenSim_Sub06_CSStiffKnee_Magnet.trc
DataRate	CameraRate	NumFrames	NumMarkers	Units	OrigDataRate	OrigDataStartFrame	OrigNumFrames
100	100	30	8	m	100	1	7164
Frame#	Time	torso_imu_offset_imu	pelvis_imu_offset_imu	tibia_r_imu_offset_imu	femur_r_imu_offset_imu	tibia_l_imu_offset_imu	femur_l_imu_offset_imu	toes_r_imu_offset_imu	toes_l_imu_offset_imu
				X1	Y1	Z1	X2	Y2	Z2	X3	Y3	Z3	X4	Y4	Z4	X5	Y5	Z5	X6	Y6	Z6	X7	Y7	Z7	X8		Y8	Z8	

1	0	-0.94395420	-0.14654030	0.05184019	-0.48967093	0.22089481	-0.76673709	-0.56258482	-0.57028131	-0.22201964	-0.72020127	-0.40428617	0.14106613	-0.70436654	0.42308790	0.07794107	-0.41423230	0.27818366	0.38729125	-0.56539999	-0.23883710	-0.52877979	-0.69124010	-0.10228034	-0.45128767
2	0.01000000	-0.94492831	-0.14776531	0.05580829	-0.49233614	0.21728712	-0.76639977	-0.56073274	-0.57126276	-0.22120131	-0.71743345	-0.40702358	0.13746212	-0.71463679	0.42192348	0.07719754	-0.41369985	0.27359527	0.38843628	-0.56207439	-0.23646539	-0.52873861	-0.69194944	-0.10046339	-0.44875831
3	0.02000000	-0.94286144	-0.14621335	0.06062436	-0.48661392	0.21203148	-0.76682336	-0.56411619	-0.57063931	-0.22599805	-0.71479055	-0.40959047	0.13728142	-0.71258474	0.42612745	0.07689893	-0.41459754	0.27224188	0.39774037	-0.56165955	-0.23520301	-0.52917250	-0.69246435	-0.10013568	-0.44822334
4	0.03000000	-0.94788975	-0.14881246	0.05453075	-0.49156950	0.21825095	-0.76975943	-0.56195288	-0.57457738	-0.22055573	-0.71715376	-0.40597419	0.13754595	-0.71050636	0.42528157	0.07172553	-0.41802015	0.27301610	0.39495689	-0.55690389	-0.23836520	-0.53155792	-0.68828928	-0.10268788	-0.44766604
5	0.04000000	-0.94989306	-0.15113314	0.05925320	-0.48397364	0.21606017	-0.77069143	-0.56508972	-0.57341803	-0.22363444	-0.71611311	-0.41072043	0.13463206	-0.70858444	0.42596827	0.07385665	-0.41230790	0.27510856	0.38885399	-0.56108650	-0.24181996	-0.52827380	-0.68922527	-0.10645883	-0.45182822
6	0.05000000	-0.94172970	-0.15139341	0.06112205	-0.48429978	0.22404188	-0.76856474	-0.56540447	-0.57089681	-0.22945150	-0.71842383	-0.40704054	0.14046102	-0.70986657	0.42394873	0.07612852	-0.41524583	0.27368476	0.38922833	-0.56472090	-0.24065451	-0.52246602	-0.69250315	-0.10304988	-0.45048626
7	0.06000000	-0.94400437	-0.14731006	0.05599998	-0.48605669	0.21796214	-0.77003022	-0.56548374	-0.57033082	-0.22718557	-0.71949992	-0.40902481	0.13902237	-0.70987588	0.42233907	0.07981897	-0.41472522	0.27357018	0.38492243	-0.55816581	-0.23961219	-0.52836883	-0.69619668	-0.10458915	-0.44860990
8	0.07000000	-0.94550139	-0.14913686	0.05603400	-0.49007042	0.21249228	-0.76958627	-0.56674406	-0.57147360	-0.22303338	-0.71446411	-0.40653532	0.13443419	-0.70686349	0.42900670	0.07741935	-0.41462331	0.27679247	0.39301960	-0.56287662	-0.24127810	-0.53108473	-0.69442598	-0.09923047	-0.44973703
9	0.08000000	-0.94453946	-0.14923729	0.05619720	-0.49352703	0.21831382	-0.76775833	-0.56684927	-0.56963436	-0.22133560	-0.71701021	-0.40747983	0.13974273	-0.70945821	0.42559945	0.07813448	-0.41561088	0.27423394	0.39093480	-0.56244652	-0.23762690	-0.53038772	-0.69008228	-0.09900661	-0.45088150
10	0.09000000	-0.94269993	-0.14533868	0.05290484	-0.48637873	0.22144437	-0.77018834	-0.56968135	-0.56960284	-0.21867084	-0.71276915	-0.40532531	0.14174387	-0.70787847	0.42111227	0.06931358	-0.41629271	0.27497332	0.38804850	-0.56127094	-0.23576074	-0.52774450	-0.68907556	-0.10047951	-0.44836654
11	0.10000000	-0.94413278	-0.14686676	0.05477686	-0.48682062	0.22002425	-0.76764868	-0.56045654	-0.57101036	-0.22188862	-0.71216436	-0.40449432	0.14233834	-0.70696207	0.42371902	0.07614845	-0.41588648	0.27376145	0.39723909	-0.55813896	-0.24023218	-0.52761929	-0.68809314	-0.10195643	-0.45038114
12	0.11000000	-0.94824905	-0.14775982	0.05268664	-0.49097313	0.21954450	-0.77010855	-0.56591909	-0.57402389	-0.22443735	-0.71693483	-0.40786410	0.14253133	-0.70893369	0.42329806	0.07827353	-0.41892332	0.27339867	0.39729048	-0.56050469	-0.24156730	-0.53098178	-0.68729986	-0.10438984	-0.45370699
13	0.12000000	-0.94538156	-0.14590228	0.05250864	-0.49244778	0.21901909	-0.76813684	-0.56207642	-0.57061658	-0.22078082	-0.71464550	-0.40276757	0.14399949	-0.70904896	0.42306943	0.07619575	-0.41745755	0.27746115	0.37446238	-0.56428697	-0.23998927	-0.53171383	-0.69256508	-0.09950006	-0.44959425
14	0.13000000	-0.94136441	-0.14961183	0.05440389	-0.49103867	0.21512538	-0.77288666	-0.56816412	-0.57090522	-0.22593216	-0.71364139	-0.40904475	0.13861218	-0.71202075	0.41975604	0.07614030	-0.41848226	0.27632026	0.36188746	-0.56363442	-0.23752268	-0.53551629	-0.69292198	-0.09798423	-0.44648545
15	0.14000000	-0.94571784	-0.15186226	0.05684482	-0.49111909	0.21889481	-0.76884955	-0.56948499	-0.57410058	-0.22129909	-0.71399965	-0.41019341	0.14102780	-0.71227890	0.42104502	0.07353399	-0.41363681	0.27367962	0.39455235	-0.55665526	-0.23865328	-0.53421682	-0.69142543	-0.09976924	-0.44663343
16	0.15000000	-0.94526510	-0.14659349	0.05158405	-0.49381901	0.21567035	-0.77119955	-0.56556307	-0.57035564	-0.22525708	-0.71941526	-0.40677232	0.13789289	-0.70812998	0.42425850	0.07149465	-0.41265810	0.27313260	0.38821768	-0.56308973	-0.23728879	-0.53295590	-0.69377544	-0.10251121	-0.44776150
17	0.16000000	-0.94501007	-0.14304788	0.05109216	-0.49243544	0.21430348	-0.76778325	-0.56671748	-0.56711137	-0.22522753	-0.71534066	-0.40592107	0.13555513	-0.71013794	0.41905193	0.07264638	-0.41690580	0.27871933	0.38989273	-0.56248747	-0.23987630	-0.53232416	-0.68798051	-0.10078725	-0.45234171
18	0.17000000	-0.94667869	-0.14563476	0.05275578	-0.49344275	0.21068192	-0.77097356	-0.56924057	-0.56844366	-0.22166515	-0.71678991	-0.40271333	0.13438221	-0.71359875	0.42482397	0.07460654	-0.42213417	0.28027780	0.38755210	-0.56514525	-0.23788837	-0.53085260	-0.68309883	-0.10325820	-0.45298571
19	0.18000000	-0.94881860	-0.14633342	0.05359448	-0.49335995	0.21433839	-0.77460541	-0.56974116	-0.56952483	-0.22593052	-0.71997615	-0.40639540	0.13660709	-0.70937576	0.42477424	0.07285258	-0.41665353	0.27542912	0.39420257	-0.56272455	-0.23538748	-0.52947894	-0.68996145	-0.10206507	-0.45046772
20	0.19000000	-0.94461761	-0.14342354	0.05380917	-0.49516094	0.22139125	-0.77338084	-0.56409687	-0.57181225	-0.22775977	-0.71346390	-0.40939271	0.13633428	-0.70699357	0.42395795	0.06855770	-0.41339539	0.27510599	0.39165426	-0.55724879	-0.23670942	-0.52713222	-0.68850061	-0.10053068	-0.44828015
21	0.20000000	-0.94600674	-0.14648431	0.05133549	-0.48949147	0.21107148	-0.77583129	-0.56308772	-0.57492143	-0.22275005	-0.71600458	-0.40825689	0.13688109	-0.70859839	0.42471773	0.06725524	-0.41685858	0.27747301	0.38827869	-0.55971152	-0.23539530	-0.53186549	-0.68988541	-0.10002246	-0.45119983
22	0.21000000	-0.94304945	-0.14447340	0.05574876	-0.49234939	0.21715140	-0.76469816	-0.56480029	-0.56906031	-0.22196066	-0.71459524	-0.40706105	0.13970612	-0.70657377	0.42034184	0.06747290	-0.41560128	0.28008210	0.38877014	-0.56213346	-0.23767256	-0.52838923	-0.69033726	-0.09824662	-0.45511025
23	0.22000000	-0.93989885	-0.15085818	0.05428804	-0.49258655	0.21997090	-0.76818133	-0.56037407	-0.56987500	-0.22162117	-0.71244125	-0.40594906	0.14066551	-0.70991657	0.42239870	0.06715118	-0.42099275	0.27977656	0.38867276	-0.55981834	-0.23698395	-0.52645766	-0.69046036	-0.09807861	-0.45113022
24	0.23000000	-0.94588182	-0.14464721	0.05291072	-0.49448091	0.21630829	-0.77197782	-0.56498488	-0.57043643	-0.22321728	-0.71842096	-0.40225330	0.13779771	-0.71055431	0.42621905	0.06833904	-0.41948538	0.27694391	0.38857082	-0.56119311	-0.23776467	-0.53327466	-0.69198981	-0.09989157	-0.45415721
25	0.24000000	-0.94573479	-0.14953681	0.05170386	-0.49360657	0.21542533	-0.77446683	-0.56776154	-0.57140308	-0.22629210	-0.71147561	-0.40350591	0.14027415	-0.70952237	0.42432130	0.07315432	-0.41533820	0.27872923	0.38907595	-0.56606793	-0.23900319	-0.52645697	-0.68669576	-0.10186819	-0.45301577
26	0.25000000	-0.94671934	-0.14247427	0.04830702	-0.49123512	0.21258423	-0.77455255	-0.56888109	-0.56986353	-0.22330041	-0.71384204	-0.40484759	0.14274488	-0.71003011	0.42047937	0.07324058	-0.41559369	0.27702794	0.38703214	-0.56424784	-0.23687785	-0.52661553	-0.68784254	-0.09858815	-0.45023323
27	0.26000000	-0.94230385	-0.14570851	0.05141403	-0.48973231	0.21472453	-0.77062922	-0.56379170	-0.57294855	-0.22076133	-0.71787507	-0.40520316	0.13714573	-0.70602175	0.42701253	0.06847115	-0.41502507	0.27968729	0.38513663	-0.55811800	-0.23746898	-0.53401761	-0.68576464	-0.10020988	-0.44933104
28	0.27000000	-0.94380575	-0.15091596	0.05373187	-0.49050486	0.21541647	-0.77579026	-0.56651527	-0.57287328	-0.21998651	-0.71860540	-0.40769861	0.13776517	-0.70721742	0.42899850	0.06622498	-0.42125374	0.27715859	0.38790798	-0.56368395	-0.23559042	-0.53216805	-0.69197505	-0.09874524	-0.45176095
29	0.28000000	-0.94437897	-0.14926733	0.05534374	-0.49283261	0.21523007	-0.77555708	-0.56211445	-0.56992364	-0.22209924	-0.71627148	-0.40496944	0.14062897	-0.70994535	0.41903348	0.06587266	-0.41698115	0.27600391	0.38443180	-0.56384796	-0.23443293	-0.53092507	-0.69104610	-0.10048628	-0.45518742
30	0.29000000	-0.94431232	-0.14824846	0.05519558	-0.48984900	0.21369924	-0.76883200	-0.56188169	-0.57187977	-0.22181320	-0.71841329	-0.40099743	0.13826725	-0.70981990	0.42700835	0.06749283	-0.41947278	0.28157063	0.38612594	-0.56223980	-0.23985803	-0.53026853	-0.69075983	-0.09736386	-0.45751127
